<svg xmlns="http://www.w3.org/2000/svg"  viewBox="0 0 64 64" width="50px" height="50px" baseProfile="basic"><path fill="#37d0ee" d="M38.5,54H15V14c0-3.314,2.686-6,6-6h30c-1,0-6,0.669-6,6v33.5C45,51.09,42.09,54,38.5,54z"/><path fill="none" stroke="#fff" stroke-linecap="round" stroke-linejoin="round" stroke-miterlimit="10" stroke-width="3" d="M18.5,17.5V14c0-1.379,1.121-2.5,2.5-2.5h3.5"/><path fill="#fff" d="M15,14v18c2.762,0,5-2.238,5-5V14c0-0.552,0.448-1,1-1h6c2.762,0,5-2.238,5-5H21	C17.686,8,15,10.686,15,14z" opacity=".3"/><ellipse cx="32" cy="61" opacity=".3" rx="20.125" ry="3"/><path fill="#008aa9" d="M34,48.562V46c0-1.657-1.343-3-3-3H12c-1.657,0-3,1.343-3,3v2.5c0,3.038,2.462,5.5,5.5,5.5h25.112	v-6.45L34,48.562z"/><circle cx="39.5" cy="48.5" r="5.5" fill="#37d0ee"/><path fill="#008aa9" d="M51.04,8.026C53.9,8.299,56,10.864,56,13.736V15c0,2.209-1.791,4-4,4h-7c0,0,0-4.094,0-5.5	C45,10.284,47.76,7.713,51.04,8.026z"/><path d="M40,27v17c0,2.753,2.226,4.984,4.975,4.997C44.99,48.833,45,48.668,45,48.5	c0-0.169-0.01-0.335-0.025-0.5C44.987,47.834,45,47.669,45,47.5V22C42.239,22,40,24.239,40,27z" opacity=".15"/></svg>